# xmcd CD database file generated by Grip 2.91
# 
# Track frame offsets:
#       180
#       10414
#       27664
#       37185
#       54368
#       64783
#       78829
#       86281
#       96289
#       105456
#       118776
#       129966
#       138217
#       151916
# 
# Disc length: 2204 seconds
# 
# Revision: 3
# Processed by: cddbd v1.4b41PL1 Copyright (c) Steve Scherf et al.
# Submitted via: Grip 2.91
# 
DISCID=ac089a0e
DTITLE=The Ozark Mountain Band - Home Sweet Home
DYEAR=1900
DGENRE=
TTITLE0=Home Sweet Home
TTITLE1=Old Love Letters
TTITLE2=Clarinet Polka
TTITLE3=I Got Over You
TTITLE4=Dreaming
TTITLE5=Home on the Range
TTITLE6=Shuckin' the Corn
TTITLE7=Mary
TTITLE8=Sally Goodin
TTITLE9=Carolina in the Pines
TTITLE10=Roll, Rolla Roll
TTITLE11=Wings of a Dove
TTITLE12=Your Love Is Like a Flower
TTITLE13=Hold What You Got
EXTD=
EXTT0=
EXTT1=
EXTT2=
EXTT3=
EXTT4=
EXTT5=
EXTT6=
EXTT7=
EXTT8=
EXTT9=
EXTT10=
EXTT11=
EXTT12=
EXTT13=
PLAYORDER=
